HIERARCHY
ROOT Hips
{
    OFFSET 0.000000 0.000000 0.000000
    CHANNELS 6 Xposition Yposition Zposition Zrotation Xrotation Yrotation
    JOINT Spine
    {
        OFFSET -0.000000 7.246840 0.000000
        CHANNELS 3 Zrotation Xrotation Yrotation
        JOINT Spine1
        {
            OFFSET -0.000000 20.289354 0.000000
            CHANNELS 3 Zrotation Xrotation Yrotation
            JOINT Neck
            {
                OFFSET -0.000000 20.206032 1.836912
                CHANNELS 3 Zrotation Xrotation Yrotation
                JOINT Head
                {
                    OFFSET -0.000000 12.372654 -1.767522
                    CHANNELS 3 Zrotation Xrotation Yrotation
                    End Site
                    {
                        OFFSET -0.000000 22.094025 0.000000
                    }
                }
            }
            JOINT LeftShoulder
            {
                OFFSET 3.465871 17.201674 -0.568930
                CHANNELS 3 Zrotation Xrotation Yrotation
                JOINT LeftArm
                {
                    OFFSET 14.070313 0.000000 0.000000
                    CHANNELS 3 Zrotation Xrotation Yrotation
                    JOINT LeftForeArm
                    {
                        OFFSET 26.549477 0.000000 0.000000
                        CHANNELS 3 Zrotation Xrotation Yrotation
                        JOINT LeftHand
                        {
                            OFFSET 18.880413 0.000000 0.000000
                            CHANNELS 3 Zrotation Xrotation Yrotation
                            End Site
                            {
                                OFFSET 13.256415 0.000000 0.000000
                            }
                        }
                    }
                }
            }
            JOINT RightShoulder
            {
                OFFSET -3.526370 17.201674 -0.568930
                CHANNELS 3 Zrotation Xrotation Yrotation
                JOINT RightArm
                {
                    OFFSET -14.070313 0.000000 0.000000
                    CHANNELS 3 Zrotation Xrotation Yrotation
                    JOINT RightForeArm
                    {
                        OFFSET -26.549477 0.000000 0.000000
                        CHANNELS 3 Zrotation Xrotation Yrotation
                        JOINT RightHand
                        {
                            OFFSET -18.880413 0.000000 0.000000
                            CHANNELS 3 Zrotation Xrotation Yrotation
                            End Site
                            {
                                OFFSET -13.256415 0.000000 0.000000
                            }
                        }
                    }
                }
            }
        }
    }
    JOINT LeftUpLeg
    {
        OFFSET 8.837609 0.000000 0.000000
        CHANNELS 3 Zrotation Xrotation Yrotation
        JOINT LeftLeg
        {
            OFFSET -0.000000 -41.345005 0.000000
            CHANNELS 3 Zrotation Xrotation Yrotation
            JOINT LeftFoot
            {
                OFFSET -0.000000 -35.500874 0.000000
                CHANNELS 3 Zrotation Xrotation Yrotation
                JOINT LeftToeBase
                {
                    OFFSET -0.000000 -5.744446 13.256415
                    CHANNELS 3 Zrotation Xrotation Yrotation
                    End Site
                    {
                        OFFSET -0.000000 0.000000 3.535044
                    }
                }
            }
        }
    }
    JOINT RightUpLeg
    {
        OFFSET -8.837609 0.000000 0.000000
        CHANNELS 3 Zrotation Xrotation Yrotation
        JOINT RightLeg
        {
            OFFSET -0.000000 -41.345005 0.000000
            CHANNELS 3 Zrotation Xrotation Yrotation
            JOINT RightFoot
            {
                OFFSET -0.000000 -35.500874 0.000000
                CHANNELS 3 Zrotation Xrotation Yrotation
                JOINT RightToeBase
                {
                    OFFSET -0.000000 -5.744446 13.256415
                    CHANNELS 3 Zrotation Xrotation Yrotation
                    End Site
                    {
                        OFFSET -0.000000 0.000000 3.535044
                    }
                }
            }
        }
    }
}
MOTION
Frames:    8
Frame Time:    0.010000
14.876562    82.627419    13.134230    1.710579    3.560645    -8.083549    -6.611894    -13.712856    -2.216637    4.276940    7.938131    -1.717710    2.684853    23.144009    -3.743581    1.257050    -12.499117    -3.403784    6.205278    5.442834    11.297508    -89.009117    47.010773    0.164149    3.148799    -24.702719    -28.135410    -54.412712    -19.611639    -9.137143    -8.394139    5.863098    7.956137    77.138329    56.235947    0.178991    -7.688313    -18.469301    38.562378    37.100613    -10.594535    16.118458    -1.782249    6.974416    1.422031    -1.321817    -9.724538    -5.651185    1.059102    0.282783    2.633041    -0.565959    -1.909965    0.801569    -7.298680    -0.691093    1.781915    5.492082    -1.715316    4.083149    5.102163    -2.312530    -3.907941    -1.415568    -2.188211    2.600292    
14.872069    82.631523    13.134076    1.708456    3.545543    -8.080647    -6.640587    -13.728130    -2.247920    4.235528    8.046942    -1.745830    2.859677    23.260052    -3.800890    1.192338    -12.680147    -3.462754    6.368394    5.506516    11.287162    -89.147743    46.880775    0.103927    3.184455    -24.708782    -28.098249    -54.351646    -19.595577    -9.179735    -8.365139    5.821318    7.911000    76.494972    56.482914    0.105433    -7.971939    -18.751616    40.291801    37.188766    -10.653791    16.083242    -1.769415    6.987381    1.426418    -1.311642    -9.727687    -5.787676    1.026586    0.285020    2.774409    -0.549967    -1.926416    0.778999    -7.287701    -0.672240    1.753121    5.469952    -1.718628    4.095890    5.122766    -2.305665    -3.890208    -1.412224    -2.170866    2.593644    
14.833292    82.625107    13.131285    1.613532    3.543901    -8.061671    -6.684982    -13.759149    -2.302871    4.408205    8.217793    -1.812341    2.843341    23.307508    -3.877217    1.225245    -12.840378    -3.532046    6.362051    5.507800    11.267886    -89.178902    46.819950    0.060654    3.176238    -24.741461    -28.124971    -54.242538    -19.625809    -9.211197    -8.471191    5.927814    7.770520    75.432877    56.586697    0.434532    -8.081964    -19.278975    42.414433    37.075748    -10.969888    16.205265    -1.615066    7.000683    1.437208    -1.405562    -9.709430    -5.706375    1.032210    0.266259    2.648586    -0.556222    -1.925431    0.787854    -7.143254    -0.642989    1.736648    5.421257    -1.729464    4.125256    5.108948    -2.316085    -3.927975    -1.430243    -2.158700    2.626367    
14.841594    82.618057    13.117647    1.617456    3.540729    -8.113854    -6.738450    -13.797432    -2.356639    4.545146    8.393725    -1.874182    2.711100    23.362501    -3.925910    1.345548    -13.020221    -3.557943    6.284447    5.524966    11.262079    -89.157303    46.763275    -0.004046    3.142255    -24.803808    -28.191031    -54.112801    -19.682631    -9.265785    -8.699924    6.003126    7.671713    74.284447    56.565052    0.821454    -8.338502    -19.453382    44.829372    36.726566    -10.852675    16.367561    -1.622665    6.999667    1.431352    -1.386213    -9.720882    -5.766783    1.018916    0.270603    2.757578    -0.562273    -1.933529    0.796465    -7.153329    -0.670776    1.746837    5.432775    -1.720784    4.104433    5.122636    -2.291734    -3.863901    -1.409848    -2.174089    2.589376    
14.854333    82.624031    13.132957    1.659230    3.440852    -8.191354    -6.777213    -13.783606    -2.388909    4.477112    8.589977    -1.905266    2.862374    23.490889    -3.987581    1.345110    -13.301635    -3.604997    6.407949    5.594141    11.241825    -89.250854    46.665615    -0.079745    3.191401    -24.827703    -28.195961    -54.020432    -19.691849    -9.292028    -8.701435    6.209040    7.516312    72.666611    56.454517    1.396941    -8.540188    -19.866621    47.707642    36.363571    -10.952650    16.537109    -1.702168    7.120150    1.457101    -1.396725    -9.732395    -5.635190    1.033912    0.246216    2.677043    -0.558459    -1.917869    0.790986    -7.225059    -0.574121    1.781639    5.445137    -1.740225    4.136994    5.120365    -2.284446    -3.858527    -1.423140    -2.143133    2.612870    
14.858854    82.622169    13.127983    1.648821    3.421236    -8.275517    -6.752382    -13.736776    -2.418416    4.377157    8.638637    -1.934963    3.149252    23.652905    -4.069334    1.236787    -13.585488    -3.689620    6.552277    5.646808    11.184976    -89.399872    46.475670    -0.058313    3.235358    -24.794235    -28.188381    -53.949173    -19.644636    -9.311046    -8.642690    6.397692    7.273058    70.954071    56.166748    1.954440    -8.859692    -19.957888    50.952080    36.011448    -10.847556    15.977277    -1.701542    7.151336    1.479885    -1.375396    -9.757650    -5.665951    1.012868    0.256449    2.772710    -0.537643    -1.919829    0.761512    -7.219456    -0.574181    1.836570    5.446603    -1.752176    4.119673    5.139621    -2.256420    -3.820974    -1.435680    -2.140203    2.635801    
14.869799    82.622299    13.120678    1.650788    3.405982    -8.376146    -6.743696    -13.733768    -2.465909    4.322442    8.764449    -1.984355    3.378178    23.779175    -4.142120    1.130004    -13.866532    -3.769531    6.647440    5.558184    11.075733    -89.651619    46.287483    0.177469    3.286182    -24.785467    -28.238338    -53.889572    -19.606949    -9.354311    -8.708253    6.488224    6.993393    69.160431    55.821663    2.611326    -8.489205    -20.921329    54.361225    35.503471    -11.640565    16.468946    -1.729028    7.162901    1.572702    -1.353736    -9.748089    -5.711674    1.000280    0.250429    2.823531    -0.553896    -1.937691    0.784619    -7.225029    -0.585759    1.872710    5.440893    -1.746784    4.265834    5.126116    -2.245056    -3.911743    -1.442051    -2.158818    2.648050    
14.903392    82.618996    13.087770    1.716230    3.464688    -8.542261    -6.797469    -13.732537    -2.510795    4.372517    8.762745    -2.026564    3.503013    23.934759    -4.229970    1.036139    -14.099400    -3.868762    6.581436    5.620361    10.981616    -89.686661    46.068020    0.205599    3.278865    -24.785286    -28.300293    -53.789890    -19.608839    -9.370002    -8.945158    6.509667    6.740122    67.446564    55.672112    3.152214    -8.095385    -22.239666    57.935528    35.425621    -12.684957    17.202938    -1.831156    7.074471    1.639586    -1.352329    -9.727103    -5.510861    1.021576    0.251685    2.715696    -0.543061    -1.935199    0.769259    -7.311526    -0.740798    1.938278    5.470229    -1.700945    4.275715    5.164480    -2.212433    -3.854001    -1.447713    -2.134041    2.657701    
